<?xml version="1.0" encoding="utf-8"?>
<!-- Generator: Adobe Illustrator 19.1.0, SVG Export Plug-In . SVG Version: 6.00 Build 0)  -->
<svg version="1.1" id="Layer_1" xmlns="http://www.w3.org/2000/svg" xmlns:xlink="http://www.w3.org/1999/xlink" x="0px" y="0px"
	 viewBox="0 0 64 64" enable-background="new 0 0 64 64" xml:space="preserve">
<path id="Shoutbox" d="M64,26.9786491c0-2.3829994-1.5209999-4.4055996-3.6428146-5.164999V4.6433501L28.0480843,15.9370499
	c-0.3171997-0.1947002-0.6868-0.3127003-1.0862999-0.3127003H7.3540001c-1.1524148,0-2.0865149,0.9342003-2.0865149,2.0865002
	v3.9528008C2.2617855,22.2755508,0,24.9331493,0,28.1194496c0,3.1863995,2.2617855,5.8440018,5.2674851,6.4557991v2.7434006
	c0,1.152401,0.9341002,2.0865021,2.0865149,2.0865021h5.4058847V54.14785c0,2.8767014,2.3321152,5.2088013,5.2088003,5.2088013
	h0.5634995c2.8766994,0,5.2088146-2.3320999,5.2088146-5.2088013V39.4051514h3.2207851
	c0.468401,0,0.896101-0.1599007,1.2443008-0.4204025l32.1511002,11.2385025V32.1435509
	C62.4790001,31.3841496,64,29.3615494,64,26.9786491z M21.7591858,54.14785c0,1.7793999-1.4476013,3.2270012-3.2270012,3.2270012
	h-0.5634995c-1.7793999,0-3.2271004-1.4476013-3.2271004-3.2270012V39.5682487h7.017601V54.14785z M1.9816854,28.1194496
	c0-2.0809002,1.3878999-3.8421001,3.2857997-4.4116001v8.8233013C3.3695853,31.9615498,1.9816854,30.2003498,1.9816854,28.1194496z
	 M7.2491851,37.3186493v-2.6451988c0.0085001-0.0008011,0.0173001-0.0004997,0.0257001-0.0013008v-13.105299
	c-0.0084-0.0009003-0.0172-0.0004997-0.0257001-0.0013008v-3.8547001c0-0.0576992,0.0470004-0.1047993,0.104815-0.1047993
	h19.3136845v19.8174H7.3540001C7.2961855,37.4234505,7.2491851,37.3764496,7.2491851,37.3186493z M29.0482845,37.1798515V17.7108498
	c0-0.0079002-0.002285-0.0152988-0.002285-0.0231991L58.3753853,7.4353499v14.0662003
	c-0.0009995,0.0000992-0.0021019,0.0002995-0.0032005,0.0002995V32.455349c0.0010986,0,0.0022011,0.0002022,0.0032005,0.0003014
	v14.9754982L29.0482845,37.1798515z M60.3571854,29.9601498v-5.9631004
	c0.9962997,0.6197014,1.6610985,1.7244015,1.6610985,2.9815998C62.0182838,28.2357502,61.3534851,29.3405495,60.3571854,29.9601498z
	"/>
<g>
</g>
<g>
</g>
<g>
</g>
<g>
</g>
<g>
</g>
<g>
</g>
<g>
</g>
<g>
</g>
<g>
</g>
<g>
</g>
<g>
</g>
<g>
</g>
<g>
</g>
<g>
</g>
<g>
</g>
</svg>
