<?xml version="1.0" encoding="utf-8"?>
<!-- Generator: Adobe Illustrator 16.0.0, SVG Export Plug-In . SVG Version: 6.00 Build 0)  -->
<!DOCTYPE svg PUBLIC "-//W3C//DTD SVG 1.1//EN" "http://www.w3.org/Graphics/SVG/1.1/DTD/svg11.dtd">
<svg version="1.1" id="Layer_1" xmlns="http://www.w3.org/2000/svg" xmlns:xlink="http://www.w3.org/1999/xlink" x="0px" y="0px"
	 width="198.412px" height="60.5px" viewBox="0 0 198.412 60.5" enable-background="new 0 0 198.412 60.5" xml:space="preserve">
<g>
	<g>
		<path fill-rule="evenodd" clip-rule="evenodd" fill="#86C10D" d="M17.271,22.657c-1.166-0.217-2.055-0.365-2.667-0.444
			c-1.66-0.356-2.48-0.533-2.46-0.533c-0.099,0-0.593,0.484-1.481,1.452c-1.028,1.126-1.571,1.718-1.63,1.778
			c-1.284,1.146-2.5,1.956-3.646,2.43c-0.435,0.178-0.651,0.396-0.651,0.653c0,0.217,0.019,0.543,0.059,0.978
			c0.04,0.435,0.059,0.761,0.059,0.978c0,0.237-0.025,0.592-0.074,1.066c-0.05,0.475-0.074,0.83-0.074,1.067
			c0,0.237,0.227,0.356,0.681,0.356c0.494,0,1.25-0.158,2.268-0.475c1.017-0.315,1.763-0.474,2.237-0.474
			c0.197,0,0.296,0.227,0.296,0.682c0,6.362-0.059,11.203-0.177,14.521c-0.257,6.856-0.385,10.492-0.385,10.907
			c0,0.494,0.306,0.741,0.918,0.741s1.531-0.021,2.756-0.06c1.225-0.039,2.164-0.06,2.816-0.06s0.978-0.385,0.978-1.155
			c0-1.738-0.02-4.357-0.059-7.854c-0.041-3.497-0.06-6.116-0.06-7.854c0-8.16,0.227-14.027,0.682-17.604
			c0.02-0.256,0.03-0.435,0.03-0.534C17.686,22.924,17.546,22.736,17.271,22.657z M60.463,23.22c0-0.296-0.139-0.484-0.416-0.563
			c-1.166-0.217-2.055-0.365-2.667-0.444c-1.66-0.356-2.479-0.533-2.46-0.533c-0.098,0-0.592,0.484-1.481,1.452
			c-1.028,1.126-1.571,1.718-1.63,1.778c-1.285,1.146-2.5,1.956-3.646,2.43c-0.435,0.178-0.652,0.396-0.652,0.653
			c0,0.217,0.02,0.543,0.059,0.978s0.059,0.761,0.059,0.978c0,0.237-0.024,0.592-0.074,1.066c-0.049,0.475-0.074,0.83-0.074,1.067
			c0,0.237,0.226,0.356,0.681,0.356c0.493,0,1.25-0.158,2.268-0.475c1.017-0.315,1.763-0.474,2.237-0.474
			c0.198,0,0.296,0.227,0.296,0.682c0,6.362-0.059,11.203-0.177,14.521c-0.257,6.856-0.385,10.492-0.385,10.907
			c0,0.494,0.306,0.741,0.919,0.741c0.612,0,1.53-0.021,2.756-0.06c1.225-0.039,2.164-0.06,2.815-0.06s0.979-0.385,0.979-1.155
			c0-1.738-0.021-4.357-0.06-7.854c-0.04-3.497-0.059-6.116-0.059-7.854c0-8.16,0.227-14.027,0.681-17.604
			C60.453,23.498,60.463,23.319,60.463,23.22z M41.049,30.858l1.903-3.992c0,0,3.62-0.13,1.422-3.133l7.756-18.147
			c0,0,0.849-1.369-0.775-2.22c-0.83-0.433-1.983-1.25-3.362,0.393l-1.81,3.394l-9.177-4.439l-1.164,2.48l2.715,1.567l-3.103,6.266
			l-2.327-1.044l-1.292,2.481l9.048,4.569l-1.163,2.873c0,0-3.878-0.261-1.422,3.002l-1.993,4.026
			c-0.703-0.116-1.425-0.19-2.181-0.19c-3.833,0-6.989,1.504-9.466,4.511c-2.337,2.821-3.506,6.187-3.506,10.098
			c0,3.912,1.169,7.293,3.506,10.145c2.478,3.039,5.634,4.559,9.466,4.559c3.85,0,7.013-1.52,9.491-4.559
			c2.322-2.836,3.483-6.218,3.483-10.145s-1.162-7.301-3.483-10.121C42.832,32.285,41.971,31.505,41.049,30.858z M39.644,49.525
			c-1.465,2.01-3.305,3.015-5.518,3.015c-2.29,0-4.137-0.982-5.539-2.945c-1.247-1.762-1.871-3.842-1.871-6.242
			c0-2.431,0.616-4.503,1.847-6.218c1.387-1.917,3.241-2.875,5.563-2.875c2.323,0,4.185,0.958,5.588,2.875
			c1.262,1.746,1.894,3.818,1.894,6.218C41.607,45.645,40.952,47.702,39.644,49.525z"/>
	</g>
</g>
<g>
	<g>
		<path fill="#08ABF9" d="M70.609,24.779h-6.166v33.242h20.562v-2.486H70.609V24.779z M91.788,55.771
			c-0.298-0.24-0.447-0.691-0.447-1.355V47.48h7.881v-2.139H91.34v-5.495c0-0.663,0.145-1.119,0.435-1.368s0.875-0.373,1.753-0.373
			h7.434v-1.889H90.57c-1.674,0-2.772,0.249-3.294,0.746c-0.522,0.497-0.783,1.558-0.783,3.183v13.948
			c0,1.591,0.245,2.644,0.733,3.158c0.489,0.514,1.347,0.771,2.573,0.771h11.412v-1.89h-7.334
			C92.782,56.132,92.086,56.011,91.788,55.771z M114.507,36.527c-0.746-0.637-1.625-0.956-2.635-0.956
			c-0.962,0-1.774,0.286-2.436,0.858c-0.664,0.571-1.144,1.404-1.443,2.498l-5.345,19.095h2.138l1.939-6.713h8.08l1.989,6.713h4.948
			l-5.594-18.796C115.8,38.066,115.254,37.166,114.507,36.527z M107.223,49.419l2.61-9.224c0.15-0.498,0.286-0.833,0.411-1.007
			c0.125-0.174,0.27-0.261,0.436-0.261c0.231,0,0.422,0.079,0.572,0.236c0.148,0.158,0.306,0.493,0.472,1.007l2.586,9.249H107.223z
			 M133.622,45.441l-2.188-1.318l-0.298-0.174c-2.056-1.177-3.083-2.345-3.083-3.506c0-0.928,0.377-1.641,1.132-2.138
			c0.753-0.497,1.843-0.746,3.269-0.746c0.232,0,0.609,0.024,1.131,0.074c0.522,0.05,1.496,0.157,2.922,0.323v-1.84
			c-0.928-0.132-1.745-0.232-2.449-0.298c-0.705-0.066-1.347-0.1-1.927-0.1c-2.686,0-4.765,0.572-6.24,1.716
			c-1.475,1.143-2.213,2.743-2.213,4.798c0,1.193,0.356,2.234,1.069,3.12c0.712,0.887,1.973,1.819,3.779,2.797l1.392,0.771
			l0.274,0.149c2.32,1.243,3.481,2.594,3.481,4.053c0,1.127-0.411,1.964-1.231,2.511c-0.821,0.547-2.06,0.821-3.717,0.821
			c-0.746,0-1.492-0.053-2.237-0.161c-0.746-0.108-1.509-0.261-2.288-0.461v1.791c1.028,0.199,1.981,0.348,2.859,0.447
			c0.878,0.1,1.708,0.15,2.486,0.15c2.818,0,4.998-0.58,6.539-1.741c1.542-1.16,2.313-2.785,2.313-4.873
			c0-1.26-0.307-2.316-0.92-3.17C136.862,47.583,135.578,46.584,133.622,45.441z M149.803,56.132c-1.094,0-1.791-0.121-2.089-0.361
			c-0.298-0.24-0.447-0.691-0.447-1.355V47.48h7.881v-2.139h-7.881v-5.495c0-0.663,0.145-1.119,0.435-1.368s0.875-0.373,1.753-0.373
			h7.434v-1.889h-10.392c-1.675,0-2.772,0.249-3.295,0.746c-0.522,0.497-0.782,1.558-0.782,3.183v13.948
			c0,1.591,0.244,2.644,0.733,3.158c0.488,0.514,1.346,0.771,2.573,0.771h11.413v-1.89H149.803z"/>
	</g>
</g>
<g>
	<g>
		<path fill="#070707" d="M159.741,58.109h2.359v-2.634h-2.359V58.109z M170.366,56.252c-0.321,0.085-0.643,0.127-0.963,0.127
			c-0.838,0-1.484-0.309-1.936-0.928s-0.678-1.505-0.678-2.659c0-1.062,0.223-1.876,0.668-2.447c0.445-0.57,1.081-0.855,1.906-0.855
			c0.302,0,0.606,0.041,0.914,0.123c0.308,0.082,0.593,0.199,0.855,0.349l0.127-1.956c-0.4-0.144-0.79-0.253-1.169-0.329
			c-0.38-0.075-0.744-0.113-1.09-0.113c-1.494,0-2.659,0.477-3.495,1.431c-0.835,0.953-1.253,2.288-1.253,4.005
			c0,1.618,0.408,2.907,1.223,3.867c0.816,0.96,1.919,1.439,3.307,1.439c0.466,0,0.913-0.037,1.342-0.113
			c0.429-0.075,0.854-0.191,1.273-0.349l-0.099-1.965C170.999,56.042,170.687,56.167,170.366,56.252z M176.823,47.563
			c-1.421,0-2.518,0.465-3.288,1.396s-1.154,2.257-1.154,3.981c0,1.716,0.386,3.04,1.159,3.97c0.773,0.931,1.867,1.396,3.283,1.396
			c1.435,0,2.539-0.464,3.312-1.39c0.774-0.928,1.161-2.253,1.161-3.976c0-1.73-0.387-3.058-1.161-3.986
			C179.362,48.027,178.258,47.563,176.823,47.563z M178.272,55.599c-0.323,0.6-0.8,0.899-1.429,0.899
			c-0.617,0-1.091-0.305-1.425-0.914s-0.501-1.483-0.501-2.624c0-1.153,0.167-2.04,0.501-2.659s0.809-0.929,1.425-0.929
			c0.616,0,1.089,0.308,1.42,0.923c0.331,0.616,0.497,1.504,0.497,2.664C178.76,54.119,178.597,54.999,178.272,55.599z
			 M195.699,48.448c-0.475-0.59-1.154-0.885-2.04-0.885c-0.642,0-1.196,0.14-1.661,0.418c-0.465,0.278-0.845,0.696-1.14,1.252
			c-0.223-0.544-0.559-0.958-1.008-1.243c-0.449-0.285-0.984-0.427-1.606-0.427c-0.583,0-1.115,0.157-1.592,0.472
			c-0.479,0.315-0.836,0.741-1.072,1.278c0-0.249-0.02-0.619-0.059-1.11c-0.02-0.19-0.033-0.328-0.039-0.413h-2.192
			c0.033,0.354,0.058,0.724,0.074,1.111c0.016,0.386,0.024,0.812,0.024,1.278v7.931h2.398v-6.015c0-0.779,0.141-1.388,0.423-1.823
			c0.281-0.436,0.671-0.653,1.169-0.653c0.452,0,0.787,0.148,1.002,0.447c0.216,0.297,0.324,0.764,0.324,1.399v6.645h2.399v-6.015
			c0-0.779,0.14-1.388,0.422-1.823c0.281-0.436,0.668-0.653,1.159-0.653c0.458,0,0.796,0.148,1.013,0.447
			c0.216,0.297,0.325,0.764,0.325,1.399v6.645h2.388v-7.125C196.412,49.883,196.174,49.038,195.699,48.448z"/>
	</g>
</g>
</svg>
