<?xml version="1.0" encoding="utf-8"?>
<!-- Generator: Adobe Illustrator 17.0.0, SVG Export Plug-In . SVG Version: 6.00 Build 0)  -->
<!DOCTYPE svg PUBLIC "-//W3C//DTD SVG 1.1//EN" "http://www.w3.org/Graphics/SVG/1.1/DTD/svg11.dtd">
<svg version="1.1" id="Layer_1" xmlns="http://www.w3.org/2000/svg" xmlns:xlink="http://www.w3.org/1999/xlink" x="0px" y="0px"
	 width="363px" height="333px" viewBox="0 0 363 333" enable-background="new 0 0 363 333" xml:space="preserve">
<g>
	<rect x="-1.159" y="-1.55" fill="#78878C" width="366" height="335.752"/>
	<path opacity="0.1" fill="#AEB5B8" d="M364.841,105.948v120.774c-15.045,45.809-46.79,84.054-87.994,107.479H86.836
		c-41.223-23.426-72.95-61.67-87.994-107.479V105.948C13.886,60.12,45.612,21.894,86.836-1.55h190.012
		C318.051,21.894,349.797,60.12,364.841,105.948z"/>
	<ellipse opacity="0.1" fill="#AEB5B8" cx="181.841" cy="166.326" rx="138.695" ry="138.932"/>
	<ellipse opacity="0.1" fill="#AEB5B8" cx="181.841" cy="166.326" rx="86.684" ry="86.832"/>
</g>
<g>
	<line fill="none" stroke="#435159" stroke-width="12" stroke-miterlimit="10" x1="155" y1="265" x2="214" y2="265"/>
	<line fill="none" stroke="#435159" stroke-width="12" stroke-miterlimit="10" x1="139" y1="284" x2="231" y2="284"/>
	
		<rect x="61.774" y="78.965" fill="none" stroke="#435159" stroke-width="12" stroke-miterlimit="10" width="245.453" height="165.998"/>
</g>
<polygon fill="#FF6908" points="169,143.063 202.597,162.46 169,181.856 "/>
</svg>
