<?xml version="1.0" encoding="utf-8"?>
<!-- Generator: Adobe Illustrator 17.0.0, SVG Export Plug-In . SVG Version: 6.00 Build 0)  -->
<!DOCTYPE svg PUBLIC "-//W3C//DTD SVG 1.1//EN" "http://www.w3.org/Graphics/SVG/1.1/DTD/svg11.dtd">
<svg version="1.1" id="Layer_1" xmlns="http://www.w3.org/2000/svg" xmlns:xlink="http://www.w3.org/1999/xlink" x="0px" y="0px"
	 width="363px" height="333px" viewBox="0 0 363 333" enable-background="new 0 0 363 333" xml:space="preserve">
<polygon fill="#CED4D7" points="364.036,335.214 -1.291,334.202 -1.291,-2.786 364.036,-1.774 "/>
<polygon opacity="0.15" fill="#78878C" points="-8.441,337.341 366,-5.567 366,337.341 "/>
<g>
	<line fill="none" stroke="#8B9A9E" stroke-width="12" stroke-miterlimit="10" x1="253.39" y1="103.268" x2="301.989" y2="54.535"/>
	<line fill="none" stroke="#8B9A9E" stroke-width="12" stroke-miterlimit="10" x1="301.989" y1="103.268" x2="253.39" y2="54.535"/>
</g>
<g>
	
		<line fill="none" stroke="#8B9A9E" stroke-width="12" stroke-miterlimit="10" x1="253.39" y1="251.396" x2="301.989" y2="202.663"/>
	
		<line fill="none" stroke="#8B9A9E" stroke-width="12" stroke-miterlimit="10" x1="301.989" y1="251.396" x2="253.39" y2="202.663"/>
</g>
<polygon opacity="0.15" fill="#78878C" points="366,337.341 -8.44,-5.567 366,-5.567 "/>
<polygon fill="#CED4D7" points="158.697,166.244 136.189,183.143 103.741,139.687 126.249,122.788 "/>
<g>
	<g>
		<path fill="none" stroke="#FF6908" stroke-width="12" stroke-linejoin="round" d="M124.906,152.965
			c26.84-40.026,76.883-35.689,98.888-6.662"/>
		<g>
			<polygon fill="#FF6908" points="212.142,150.742 234.198,160.028 231.215,136.283 			"/>
		</g>
	</g>
</g>
<ellipse fill="none" stroke="#78878C" stroke-width="12" stroke-miterlimit="10" cx="94.56" cy="190.366" rx="26.526" ry="26.599"/>
</svg>
