<?xml version="1.0" encoding="utf-8"?>
<!-- Generator: Adobe Illustrator 17.0.0, SVG Export Plug-In . SVG Version: 6.00 Build 0)  -->
<!DOCTYPE svg PUBLIC "-//W3C//DTD SVG 1.1//EN" "http://www.w3.org/Graphics/SVG/1.1/DTD/svg11.dtd">
<svg version="1.1" id="Layer_1" xmlns="http://www.w3.org/2000/svg" xmlns:xlink="http://www.w3.org/1999/xlink" x="0px" y="0px"
	 width="363px" height="333px" viewBox="0 0 363 333" enable-background="new 0 0 363 333" xml:space="preserve">
<g>
	<rect x="-3.27" y="-3.477" fill="#435159" width="369.541" height="339"/>
	<rect x="180.597" y="-3.477" opacity="0.1" fill="#FFFFFF" width="185.572" height="339"/>
</g>
<g>
	<rect x="57.147" y="66.68" fill="#AEB5B8" width="151.642" height="201.318"/>
	<g>
		<g>
			<path fill="#78878C" d="M194.704,106.423c0,0.694-0.568,1.262-1.262,1.262H78.829c-0.694,0-1.262-0.568-1.262-1.262v-3.065
				c0-0.694,0.568-1.262,1.262-1.262h114.613c0.694,0,1.262,0.568,1.262,1.262V106.423z"/>
		</g>
		<g>
			<path fill="#78878C" d="M184.634,126.552c0,0.694-0.568,1.262-1.262,1.262H78.829c-0.694,0-1.262-0.568-1.262-1.262v-3.065
				c0-0.694,0.568-1.262,1.262-1.262h104.543c0.694,0,1.262,0.568,1.262,1.262V126.552z"/>
		</g>
		<g>
			<path fill="#78878C" d="M173.605,146.68c0,0.694-0.568,1.262-1.262,1.262H78.829c-0.694,0-1.262-0.568-1.262-1.262v-3.065
				c0-0.694,0.568-1.262,1.262-1.262h93.514c0.694,0,1.262,0.568,1.262,1.262V146.68z"/>
		</g>
		<g>
			<path fill="#78878C" d="M194.704,166.808c0,0.694-0.568,1.262-1.262,1.262H78.829c-0.694,0-1.262-0.568-1.262-1.262v-3.065
				c0-0.694,0.568-1.262,1.262-1.262h114.613c0.694,0,1.262,0.568,1.262,1.262V166.808z"/>
		</g>
		<g>
			<path fill="#78878C" d="M125.586,186.937c0,0.694-0.568,1.262-1.262,1.262H78.829c-0.694,0-1.262-0.568-1.262-1.262v-3.065
				c0-0.694,0.568-1.262,1.262-1.262h45.495c0.694,0,1.262,0.568,1.262,1.262V186.937z"/>
		</g>
	</g>
	<g opacity="0.3">
		<path fill="#78878C" d="M138.624,189.215c-0.794-0.001-1.445,0.648-1.446,1.442l-0.002,1.333
			c-0.001,0.794,0.648,1.445,1.442,1.446l4.454,0.006c0.794,0.001,1.445-0.648,1.446-1.442l0.002-1.333
			c0.001-0.794-0.648-1.445-1.442-1.446L138.624,189.215z"/>
		<path fill="#78878C" d="M171.916,202.49v-22.346l-8.82-0.016c-1.889,0-4.818,0.72-6.499,1.585l-15.351,7.972
			c-1.681,0.88-1.697,2.321-0.032,3.218l14.711,7.94c1.665,0.896,4.562,1.633,6.467,1.633L171.916,202.49z"/>
		<polygon fill="#78878C" points="249.731,180.128 171.88,180.064 171.88,202.522 249.693,202.586 		"/>
		<path fill="#78878C" d="M320.999,191.386c-0.003,2.087-1.007,4.146-2.986,6.119c-4.43,4.418-12.887,7.379-18.008,7.372
			l-50.745-0.061c-0.18,0-0.353-0.072-0.481-0.2c-0.127-0.128-0.199-0.301-0.199-0.481l0.034-25.678c0-0.188,0.077-0.358,0.2-0.48
			c0.123-0.123,0.293-0.199,0.481-0.199l50.745,0.06c3.77,0.005,8.925,1.521,13.132,3.864
			C318.225,184.514,321.004,187.953,320.999,191.386z"/>
		<g>
			<path fill="#78878C" d="M259.162,208.598c-0.367,0.371-0.593,0.882-0.59,1.446c0.006,1.127,0.924,2.036,2.05,2.03l36.985-0.185
				c3.375-0.017,6.107-2.777,6.09-6.151l-0.023-4.63c-0.006-1.127-0.923-2.036-2.05-2.03s-2.036,0.924-2.03,2.05l0.023,4.63
				c0.005,1.125-0.905,2.045-2.03,2.05l-36.985,0.186C260.038,207.996,259.529,208.227,259.162,208.598z"/>
		</g>
	</g>
	<g>
		<path fill="#FF6908" d="M138.624,182.984c-0.794-0.001-1.445,0.648-1.446,1.442l-0.002,1.333
			c-0.001,0.794,0.648,1.445,1.442,1.446l4.454,0.006c0.794,0.001,1.445-0.648,1.446-1.442l0.002-1.333
			c0.001-0.794-0.648-1.445-1.442-1.446L138.624,182.984z"/>
		<path fill="#FF6908" d="M171.916,196.259v-22.346l-8.82-0.016c-1.889,0-4.818,0.72-6.499,1.585l-15.351,7.972
			c-1.681,0.88-1.697,2.321-0.032,3.218l14.711,7.94c1.665,0.896,4.562,1.633,6.467,1.633L171.916,196.259z"/>
		<polygon fill="#E1E4E6" points="249.731,173.896 171.88,173.832 171.88,196.291 249.693,196.355 		"/>
		<path fill="#FF6908" d="M320.999,185.155c-0.003,2.087-1.007,4.146-2.986,6.119c-4.43,4.418-12.887,7.379-18.008,7.372
			l-50.745-0.061c-0.18,0-0.353-0.072-0.481-0.2c-0.127-0.128-0.199-0.301-0.199-0.481l0.034-25.678c0-0.188,0.077-0.358,0.2-0.481
			c0.123-0.123,0.293-0.199,0.481-0.199l50.745,0.06c3.77,0.005,8.925,1.521,13.132,3.864
			C318.225,178.283,321.004,181.721,320.999,185.155z"/>
		<g>
			<path fill="#FF6908" d="M259.162,202.366c-0.367,0.371-0.593,0.882-0.59,1.446c0.006,1.127,0.924,2.036,2.05,2.03l36.985-0.185
				c3.375-0.017,6.107-2.777,6.09-6.151l-0.023-4.63c-0.006-1.127-0.923-2.036-2.05-2.03c-1.127,0.006-2.036,0.924-2.03,2.05
				l0.023,4.63c0.005,1.125-0.905,2.045-2.03,2.05l-36.985,0.186C260.038,201.764,259.529,201.995,259.162,202.366z"/>
		</g>
	</g>
</g>
</svg>
